<mxfile host="app.diagrams.net" agent="Mozilla/5.0 (Windows NT 10.0; Win64; x64) AppleWebKit/537.36 (KHTML, like Gecko) Chrome/133.0.0.0 Safari/537.36" version="26.0.11">
  <diagram name="Page-1" id="1unOi7WyPeC_XulYjdJq">
    <mxGraphModel dx="1354" dy="593" grid="1" gridSize="10" guides="1" tooltips="1" connect="1" arrows="1" fold="1" page="1" pageScale="1" pageWidth="827" pageHeight="1169" math="0" shadow="0">
      <root>
        <mxCell id="0" />
        <mxCell id="1" parent="0" />
        <mxCell id="4uRcQ6qyeXI252qOI-zu-1" value="AWS Account" style="points=[[0,0],[0.25,0],[0.5,0],[0.75,0],[1,0],[1,0.25],[1,0.5],[1,0.75],[1,1],[0.75,1],[0.5,1],[0.25,1],[0,1],[0,0.75],[0,0.5],[0,0.25]];outlineConnect=0;gradientColor=none;html=1;whiteSpace=wrap;fontSize=12;fontStyle=0;container=1;pointerEvents=0;collapsible=0;recursiveResize=0;shape=mxgraph.aws4.group;grIcon=mxgraph.aws4.group_account;strokeColor=#CD2264;fillColor=none;verticalAlign=top;align=left;spacingLeft=30;fontColor=#CD2264;dashed=0;" vertex="1" parent="1">
          <mxGeometry x="240" y="160" width="520" height="360" as="geometry" />
        </mxCell>
        <mxCell id="4uRcQ6qyeXI252qOI-zu-7" value="" style="outlineConnect=0;dashed=0;verticalLabelPosition=bottom;verticalAlign=top;align=center;html=1;shape=mxgraph.aws3.ecs;fillColor=#F58534;gradientColor=none;" vertex="1" parent="4uRcQ6qyeXI252qOI-zu-1">
          <mxGeometry x="360" y="140" width="120" height="90" as="geometry" />
        </mxCell>
        <mxCell id="4uRcQ6qyeXI252qOI-zu-8" value="Lamda" style="text;html=1;align=center;verticalAlign=middle;whiteSpace=wrap;rounded=0;" vertex="1" parent="4uRcQ6qyeXI252qOI-zu-1">
          <mxGeometry x="380" y="230" width="60" height="30" as="geometry" />
        </mxCell>
        <mxCell id="4uRcQ6qyeXI252qOI-zu-10" value="" style="outlineConnect=0;dashed=0;verticalLabelPosition=bottom;verticalAlign=top;align=center;html=1;shape=mxgraph.aws3.api_gateway;fillColor=#D9A741;gradientColor=none;" vertex="1" parent="4uRcQ6qyeXI252qOI-zu-1">
          <mxGeometry x="40" y="120" width="120" height="110" as="geometry" />
        </mxCell>
        <mxCell id="4uRcQ6qyeXI252qOI-zu-11" value="API Gateway" style="text;html=1;align=center;verticalAlign=middle;whiteSpace=wrap;rounded=0;" vertex="1" parent="4uRcQ6qyeXI252qOI-zu-1">
          <mxGeometry x="60" y="240" width="60" height="30" as="geometry" />
        </mxCell>
        <mxCell id="4uRcQ6qyeXI252qOI-zu-21" value="" style="curved=1;endArrow=classic;html=1;rounded=0;" edge="1" parent="4uRcQ6qyeXI252qOI-zu-1" target="4uRcQ6qyeXI252qOI-zu-10">
          <mxGeometry width="50" height="50" relative="1" as="geometry">
            <mxPoint x="360" y="220" as="sourcePoint" />
            <mxPoint x="410" y="170" as="targetPoint" />
            <Array as="points">
              <mxPoint x="410" y="220" />
              <mxPoint x="360" y="170" />
            </Array>
          </mxGeometry>
        </mxCell>
        <mxCell id="4uRcQ6qyeXI252qOI-zu-22" value="" style="curved=1;endArrow=classic;html=1;rounded=0;" edge="1" parent="4uRcQ6qyeXI252qOI-zu-1">
          <mxGeometry width="50" height="50" relative="1" as="geometry">
            <mxPoint x="40" y="180" as="sourcePoint" />
            <mxPoint x="-20" y="150" as="targetPoint" />
            <Array as="points">
              <mxPoint x="90" y="180" />
              <mxPoint x="40" y="130" />
            </Array>
          </mxGeometry>
        </mxCell>
        <mxCell id="4uRcQ6qyeXI252qOI-zu-2" value="" style="rounded=1;whiteSpace=wrap;html=1;" vertex="1" parent="1">
          <mxGeometry x="620" y="120" width="120" height="60" as="geometry" />
        </mxCell>
        <mxCell id="4uRcQ6qyeXI252qOI-zu-3" value="ECR&amp;nbsp;&lt;div&gt;Repository&lt;/div&gt;" style="text;html=1;align=center;verticalAlign=middle;whiteSpace=wrap;rounded=0;" vertex="1" parent="1">
          <mxGeometry x="650" y="135" width="60" height="30" as="geometry" />
        </mxCell>
        <mxCell id="4uRcQ6qyeXI252qOI-zu-4" value="" style="rounded=1;whiteSpace=wrap;html=1;" vertex="1" parent="1">
          <mxGeometry x="490" y="50" width="120" height="40" as="geometry" />
        </mxCell>
        <mxCell id="4uRcQ6qyeXI252qOI-zu-5" value="Image" style="text;html=1;align=center;verticalAlign=middle;whiteSpace=wrap;rounded=0;" vertex="1" parent="1">
          <mxGeometry x="520" y="55" width="60" height="30" as="geometry" />
        </mxCell>
        <mxCell id="4uRcQ6qyeXI252qOI-zu-6" value="" style="endArrow=classic;html=1;rounded=0;" edge="1" parent="1">
          <mxGeometry width="50" height="50" relative="1" as="geometry">
            <mxPoint x="610" y="80" as="sourcePoint" />
            <mxPoint x="660" y="110" as="targetPoint" />
          </mxGeometry>
        </mxCell>
        <mxCell id="4uRcQ6qyeXI252qOI-zu-12" value="Cloud Front&lt;div&gt;Distribution&lt;/div&gt;" style="outlineConnect=0;dashed=0;verticalLabelPosition=bottom;verticalAlign=top;align=center;html=1;shape=mxgraph.aws3.cloudfront;fillColor=#F58536;gradientColor=none;" vertex="1" parent="1">
          <mxGeometry x="140" y="280" width="76.5" height="93" as="geometry" />
        </mxCell>
        <mxCell id="4uRcQ6qyeXI252qOI-zu-13" value="" style="sketch=0;outlineConnect=0;fontColor=#232F3E;gradientColor=none;fillColor=#232F3D;strokeColor=none;dashed=0;verticalLabelPosition=bottom;verticalAlign=top;align=center;html=1;fontSize=12;fontStyle=0;aspect=fixed;pointerEvents=1;shape=mxgraph.aws4.user;" vertex="1" parent="1">
          <mxGeometry x="20" y="295" width="78" height="78" as="geometry" />
        </mxCell>
        <mxCell id="4uRcQ6qyeXI252qOI-zu-18" value="" style="curved=1;endArrow=classic;html=1;rounded=0;" edge="1" parent="1" target="4uRcQ6qyeXI252qOI-zu-7">
          <mxGeometry width="50" height="50" relative="1" as="geometry">
            <mxPoint x="730" y="160" as="sourcePoint" />
            <mxPoint x="780" y="110" as="targetPoint" />
            <Array as="points">
              <mxPoint x="780" y="160" />
              <mxPoint x="730" y="110" />
            </Array>
          </mxGeometry>
        </mxCell>
        <mxCell id="4uRcQ6qyeXI252qOI-zu-23" value="" style="curved=1;endArrow=classic;html=1;rounded=0;" edge="1" parent="1" target="4uRcQ6qyeXI252qOI-zu-13">
          <mxGeometry width="50" height="50" relative="1" as="geometry">
            <mxPoint x="140" y="330" as="sourcePoint" />
            <mxPoint x="190" y="280" as="targetPoint" />
            <Array as="points">
              <mxPoint x="190" y="330" />
              <mxPoint x="140" y="280" />
            </Array>
          </mxGeometry>
        </mxCell>
      </root>
    </mxGraphModel>
  </diagram>
</mxfile>
